<svg t="1762828702647" class="icon" viewBox="0 0 1024 1024" version="1.1" xmlns="http://www.w3.org/2000/svg" p-id="4721" width="200" height="200"><path d="M512 512m-512 0a512 512 0 1 0 1024 0 512 512 0 1 0-1024 0Z" fill="#ffffff" p-id="4722" data-spm-anchor-id="a313x.search_index.0.i1.252d3a81zX3ykV" class=""></path><path d="M648.7808 328.3968l72.4224 72.4224-199.1424 199.1168-72.3968-72.3968 199.1168-199.1424z m-36.1984-36.1984l-199.1168 199.1168a51.2 51.2 0 0 0 0 72.4224l72.3968 72.3968a51.2 51.2 0 0 0 72.4224 0l199.1168-199.1168a51.2 51.2 0 0 0 0-72.3968l-72.4224-72.4224a51.2 51.2 0 0 0-72.3968 0z" fill="#1afa29" p-id="4723" data-spm-anchor-id="a313x.search_index.0.i2.252d3a81zX3ykV" class="selected"></path><path d="M382.1824 200.3968l108.6208 108.6208-54.3232 54.2976-108.5952-108.5952 54.272-54.3232z m-36.1984-36.1984l-54.3232 54.3232a51.2 51.2 0 0 0 0 72.3968l108.6208 108.6208a51.2 51.2 0 0 0 72.3968 0l54.3232-54.3232a51.2 51.2 0 0 0 0-72.3968l-108.6208-108.6208a51.2 51.2 0 0 0-72.3968 0zM766.1824 584.3968l108.6208 108.6208-54.3232 54.2976-108.5952-108.5952 54.272-54.3232z m-36.1984-36.1984l-54.3232 54.3232a51.2 51.2 0 0 0 0 72.3968l108.6208 108.6208a51.2 51.2 0 0 0 72.3968 0l54.3232-54.3232a51.2 51.2 0 0 0 0-72.3968l-108.6208-108.6208a51.2 51.2 0 0 0-72.3968 0z" fill="#1afa29" p-id="4724" data-spm-anchor-id="a313x.search_index.0.i0.252d3a81zX3ykV" class="selected"></path><path d="M465.2032 350.8992a25.6 25.6 0 0 0 0 36.1984l18.0992 18.0992a25.6 25.6 0 0 0 36.1984-36.1984l-18.0992-18.0992a25.6 25.6 0 0 0-36.1984 0zM644.4032 530.0992a25.6 25.6 0 0 0 0 36.1984l18.0992 18.0992a25.6 25.6 0 0 0 36.1984-36.1984l-18.0992-18.0992a25.6 25.6 0 0 0-36.1984 0z" fill="#ffffff" p-id="4725"></path><path d="M322.5344 614.4l-34.688 34.688L406.7328 768l34.7136-34.688zM211.84 640L177.152 674.688l204.3392 204.3392 34.688-34.688z" fill="#1afa29" p-id="4726" data-spm-anchor-id="a313x.search_index.0.i3.252d3a81zX3ykV" class="selected"></path></svg>